<?xml version="1.0" encoding="UTF-8" standalone="no"?>
<svg
   width="2834.88"
   height="2834.88"
   viewBox="0 0 2834.88 2834.88"
   version="1.1"
   id="svg4"
   sodipodi:docname="trident.svg"
   inkscape:version="1.2.2 (b0a8486541, 2022-12-01)"
   xmlns:inkscape="http://www.inkscape.org/namespaces/inkscape"
   xmlns:sodipodi="http://sodipodi.sourceforge.net/DTD/sodipodi-0.dtd"
   xmlns="http://www.w3.org/2000/svg"
   xmlns:svg="http://www.w3.org/2000/svg">
  <defs
     id="defs8" />
  <sodipodi:namedview
     id="namedview6"
     pagecolor="#ffffff"
     bordercolor="#000000"
     borderopacity="0.25"
     inkscape:showpageshadow="2"
     inkscape:pageopacity="0.0"
     inkscape:pagecheckerboard="0"
     inkscape:deskcolor="#d1d1d1"
     showgrid="false"
     inkscape:zoom="0.31853201"
     inkscape:cx="1415.8702"
     inkscape:cy="1420.5793"
     inkscape:window-width="1920"
     inkscape:window-height="1056"
     inkscape:window-x="0"
     inkscape:window-y="1080"
     inkscape:window-maximized="1"
     inkscape:current-layer="svg4" />
  <path
     fill-rule="evenodd"
     fill="#000000"
     fill-opacity="1"
     d="m 1284.6992,2049.6797 c -13.6601,-11.9063 -29.7109,-20.8359 -47.789,-28.3086 -105.6914,-43.6445 -271.22661,-100.2695 -338.49614,-199.1328 -59.94922,-88.0977 -87.42578,-170.8164 -41.88281,-336.4297 45.54297,-165.6094 68.84766,-204.0781 78.65234,-311.9297 5.08985,-55.9883 -8.48047,-146.2695 -8.48047,-146.2695 l -72.87804,-23.67 c 0,0 8.61633,6.2598 -43.71961,-188.83784 -31.63672,-117.9414 -49.67969,-144.74219 -49.67969,-144.74219 0,0 162.40234,200.35938 216.92188,358.17973 31.48044,91.1211 36.76174,225.1211 20.70312,310.5195 -23.92969,127.2695 -54.30469,225.3906 -45.88281,322.6719 5.75781,66.5312 101.30083,172.5586 203.81253,209.7461 89.7187,32.5468 187.5,-10.1289 197.8008,-71.0469 2.1171,-12.5391 4.0078,-25.25 5.6796,-37.9805 l 3.7696,-567.1601 c -20.9297,-54.6172 -27.6999,-152.5309 -82.6296,-141.3513 l 136.7194,-484.88702 133.9656,478.99802 c -54.9375,-11.1796 -58.9343,92.6231 -79.864,147.2403 l 3.7578,567.1601 c 1.6797,12.7305 3.5703,25.4414 5.6914,37.9805 10.3008,60.918 108.0781,103.5937 197.8008,71.0469 102.5078,-37.1875 198.0469,-143.2149 203.8086,-209.7461 8.4179,-97.2813 -21.9492,-195.4024 -45.8907,-322.6719 -16.0507,-85.3984 -10.7695,-219.3984 20.711,-310.5195 54.5195,-157.82035 216.918,-358.17973 216.918,-358.17973 0,0 -18.0391,26.80079 -49.6797,144.74219 -52.3282,195.09764 -37.4035,166.56731 -37.4035,166.56731 l -79.1942,45.94053 c 0,0 -13.5703,90.2812 -8.4805,146.2695 9.8086,107.8516 33.1094,146.3203 78.6485,311.9297 45.5508,165.6133 18.0703,248.332 -41.8789,336.4297 -67.2696,98.8633 -232.8086,155.4883 -338.4922,199.1328 -18.0899,7.4727 -34.1367,16.4023 -47.7969,28.3086 8.4375,6.0039 13.9492,15.8633 13.9492,27.0117 v 33.1211 c 0,18.293 -14.832,33.1211 -33.1211,33.1211 h -27.8789 c -2.8789,16.5977 -4.5703,35.3984 -4.9922,56.7891 -0.3671,18.4804 24.2278,193.1211 24.3662,208.8243 l -220.9468,4.4278 c 0.1367,-15.7032 35.7894,-194.7717 35.4297,-213.2521 -0.4219,-21.3907 -2.1094,-40.1914 -5,-56.7891 h -27.8711 c -18.2891,0 -33.1172,-14.8281 -33.1172,-33.1211 v -33.1211 c 0,-11.1484 5.5,-21.0078 13.9375,-27.0117"
     id="path2"
     sodipodi:nodetypes="ccccscccccccsccccccccccccccccccccccsssccccccsssc" />
</svg>
