<?xml version="1.0" encoding="UTF-8"?>
<svg xmlns="http://www.w3.org/2000/svg" xmlns:xlink="http://www.w3.org/1999/xlink" width="2834.88" height="2834.88" viewBox="0 0 2834.88 2834.88">
<path fill-rule="evenodd" fill="rgb(0%, 0%, 0%)" fill-opacity="1" d="M 1284.699219 2049.679688 C 1271.039062 2037.773438 1254.988281 2028.84375 1236.910156 2021.371094 C 1131.21875 1977.726562 965.683594 1921.101562 898.414062 1822.238281 C 838.464844 1734.140625 810.988281 1651.421875 856.53125 1485.808594 C 902.074219 1320.199219 925.378906 1281.730469 935.183594 1173.878906 C 940.273438 1117.890625 926.703125 1027.609375 926.703125 1027.609375 L 840.746094 1132.441406 C 840.746094 1132.441406 862.441406 1010.199219 810.105469 815.101562 C 778.46875 697.160156 760.425781 670.359375 760.425781 670.359375 C 760.425781 670.359375 922.828125 870.71875 977.347656 1028.539062 C 1008.828125 1119.660156 1014.109375 1253.660156 998.050781 1339.058594 C 974.121094 1466.328125 943.746094 1564.449219 952.167969 1661.730469 C 957.925781 1728.261719 1053.46875 1834.289062 1155.980469 1871.476562 C 1245.699219 1904.023438 1343.480469 1861.347656 1353.78125 1800.429688 C 1355.898438 1787.890625 1357.789062 1775.179688 1359.460938 1762.449219 L 1363.230469 1195.289062 C 1342.300781 1140.671875 1274.019531 1111.96875 1219.089844 1123.148438 L 1417.320312 569.050781 L 1615.558594 1123.148438 C 1560.621094 1111.96875 1492.351562 1140.671875 1471.421875 1195.289062 L 1475.179688 1762.449219 C 1476.859375 1775.179688 1478.75 1787.890625 1480.871094 1800.429688 C 1491.171875 1861.347656 1588.949219 1904.023438 1678.671875 1871.476562 C 1781.179688 1834.289062 1876.71875 1728.261719 1882.480469 1661.730469 C 1890.898438 1564.449219 1860.53125 1466.328125 1836.589844 1339.058594 C 1820.539062 1253.660156 1825.820312 1119.660156 1857.300781 1028.539062 C 1911.820312 870.71875 2074.21875 670.359375 2074.21875 670.359375 C 2074.21875 670.359375 2056.179688 697.160156 2024.539062 815.101562 C 1972.210938 1010.199219 1993.898438 1132.441406 1993.898438 1132.441406 L 1907.941406 1027.609375 C 1907.941406 1027.609375 1894.371094 1117.890625 1899.460938 1173.878906 C 1909.269531 1281.730469 1932.570312 1320.199219 1978.109375 1485.808594 C 2023.660156 1651.421875 1996.179688 1734.140625 1936.230469 1822.238281 C 1868.960938 1921.101562 1703.421875 1977.726562 1597.738281 2021.371094 C 1579.648438 2028.84375 1563.601562 2037.773438 1549.941406 2049.679688 C 1558.378906 2055.683594 1563.890625 2065.542969 1563.890625 2076.691406 L 1563.890625 2109.8125 C 1563.890625 2128.105469 1549.058594 2142.933594 1530.769531 2142.933594 L 1502.890625 2142.933594 C 1500.011719 2159.53125 1498.320312 2178.332031 1497.898438 2199.722656 C 1497.53125 2218.203125 1497.75 2250.277344 1497.890625 2265.980469 L 1336.761719 2265.980469 C 1336.898438 2250.277344 1337.109375 2218.203125 1336.75 2199.722656 C 1336.328125 2178.332031 1334.640625 2159.53125 1331.75 2142.933594 L 1303.878906 2142.933594 C 1285.589844 2142.933594 1270.761719 2128.105469 1270.761719 2109.8125 L 1270.761719 2076.691406 C 1270.761719 2065.542969 1276.261719 2055.683594 1284.699219 2049.679688 "/>
</svg>
